<svg width="86" height="89" viewBox="0 0 86 89" fill="none" xmlns="http://www.w3.org/2000/svg">
<path d="M42.9954 1C19.8358 1 1 19.8065 1 42.9229C1 56.9115 7.80909 69.7137 19.314 77.5486V75.1679C9.01718 67.6462 2.95172 55.8083 2.95172 42.9229C2.95172 20.8711 20.9199 2.94505 42.9954 2.94505C65.071 2.94505 83.0392 20.8711 83.0392 42.9229C83.0392 55.9359 76.6266 68.1292 66.0883 75.5782C66.3045 76.1935 66.4928 76.8502 66.6459 77.5487C78.0356 69.7789 84.9999 56.799 85 42.9233L42.9954 1ZM42.9954 1C66.1549 1 84.9909 19.8063 85 42.9229L42.9954 1ZM41.1446 78.1153L40.0694 79.9142L42.1441 79.6183C42.4233 79.5785 42.7035 79.5556 42.9863 79.5556C44.2542 79.5556 45.2641 79.9749 45.9527 80.6345C46.6379 81.2907 47.068 82.2442 47.0762 83.4402C47.0754 84.8124 46.5738 85.9193 45.7494 86.6882C44.9191 87.4628 43.6952 87.9546 42.1578 87.9546C40.6087 87.9546 39.3771 87.4635 38.5427 86.6913C37.7143 85.9246 37.212 84.822 37.212 83.4551C37.212 82.166 37.5836 80.8349 38.7734 78.8407L38.7746 78.8388L41.2247 74.7106H43.1926C43.1187 74.8332 43.0448 74.9557 42.9708 75.0784C42.3617 76.0882 41.7507 77.1013 41.1446 78.1153ZM32.6847 74.7016L30.2196 78.6435L29.4905 79.8094L30.8243 80.1437C32.5124 80.5668 33.5712 81.8877 33.5639 83.742V83.746C33.5639 86.1479 31.7381 87.9455 28.9368 87.9455C27.5553 87.9455 26.4592 87.4982 25.7052 86.7873C25.164 86.277 24.7646 85.5988 24.5689 84.7733H26.4541C26.5812 85.1278 26.7746 85.4534 27.0386 85.7293C27.5351 86.2481 28.2135 86.5185 28.955 86.5185C29.7181 86.5185 30.4214 86.2344 30.9312 85.6991C31.4378 85.1671 31.6941 84.4504 31.6941 83.6824C31.6941 82.9017 31.4233 82.1783 30.8578 81.6566C30.3017 81.1436 29.5626 80.9189 28.7911 80.9189H27.6727L29.6815 77.6215L30.6077 76.1012H28.8275H24.8196V74.7016H32.6847ZM38.2266 50.993L38.2254 50.9938C37.1876 51.622 35.8443 50.8788 35.8371 49.6381V36.1781C35.8371 34.9581 37.1794 34.2006 38.2254 34.8338L38.2266 34.8346L49.3898 41.5702C50.4025 42.1813 50.4025 43.6463 49.3898 44.2574L38.2266 50.993ZM39.0362 83.4369C39.0362 84.3009 39.344 85.0873 39.9203 85.6592C40.4953 86.2296 41.2781 86.5276 42.1213 86.5276C42.9737 86.5276 43.7586 86.2272 44.3325 85.6525C44.9063 85.0778 45.2065 84.2918 45.2065 83.4369C45.2065 82.5712 44.9059 81.7788 44.3312 81.1997C43.7565 80.6207 42.971 80.319 42.1213 80.319C41.2717 80.319 40.4878 80.6259 39.9149 81.2031C39.3419 81.7804 39.0362 82.5712 39.0362 83.4369ZM50.3692 81.1735C50.3692 78.9571 50.961 77.2477 51.9092 76.1113C52.8416 74.9938 54.185 74.3471 55.8977 74.3471C57.6105 74.3471 58.9539 74.9938 59.8863 76.1113C60.8344 77.2477 61.4263 78.9571 61.4263 81.1735C61.4263 83.3841 60.8327 85.094 59.8829 86.2322C58.9485 87.3521 57.6045 88 55.8977 88C54.197 88 52.8524 87.3509 51.9159 86.2288C50.9643 85.0887 50.3692 83.3783 50.3692 81.1735ZM52.4575 81.1735C52.4575 82.6245 52.6817 83.8931 53.2181 84.8343C53.7897 85.8373 54.7133 86.4458 55.8977 86.4458C57.0794 86.4458 58.0034 85.8423 58.5763 84.8417C59.1137 83.9033 59.338 82.6385 59.338 81.1917C59.338 79.7372 59.1081 78.4659 58.5707 77.5222C58.0009 76.5217 57.0808 75.9012 55.8977 75.9012C54.7165 75.9012 53.794 76.511 53.2221 77.5118C52.6844 78.4526 52.4575 79.7209 52.4575 81.1735Z" fill="black" stroke="black" stroke-width="2"/>
</svg>
