<svg width="117" height="117" viewBox="0 0 117 117" fill="none" xmlns="http://www.w3.org/2000/svg">
<rect width="117" height="117" rx="24" fill="#FFF0D6"/>
<path d="M58.9954 15C35.8358 15 17 33.8065 17 56.9229C17 70.9115 23.8091 83.7137 35.314 91.5486V89.1679C25.0172 81.6462 18.9517 69.8083 18.9517 56.9229C18.9517 34.8711 36.9199 16.9451 58.9954 16.9451C81.071 16.9451 99.0392 34.8711 99.0392 56.9229C99.0392 69.9359 92.6266 82.1292 82.0883 89.5782C82.3045 90.1935 82.4928 90.8502 82.6459 91.5487C94.0356 83.7789 101 70.799 101 56.9233L58.9954 15ZM58.9954 15C82.1549 15 100.991 33.8063 101 56.9229L58.9954 15ZM57.1446 92.1153L56.0694 93.9142L58.1441 93.6183C58.4233 93.5785 58.7035 93.5556 58.9863 93.5556C60.2542 93.5556 61.2641 93.9749 61.9527 94.6345C62.6379 95.2907 63.068 96.2442 63.0762 97.4402C63.0754 98.8124 62.5738 99.9193 61.7494 100.688C60.9191 101.463 59.6952 101.955 58.1578 101.955C56.6087 101.955 55.3771 101.464 54.5427 100.691C53.7143 99.9246 53.212 98.822 53.212 97.4551C53.212 96.166 53.5836 94.8349 54.7734 92.8407L54.7746 92.8388L57.2247 88.7106H59.1926C59.1187 88.8332 59.0448 88.9557 58.9708 89.0784C58.3617 90.0882 57.7507 91.1013 57.1446 92.1153ZM48.6847 88.7016L46.2196 92.6435L45.4905 93.8094L46.8243 94.1437C48.5124 94.5668 49.5712 95.8877 49.5639 97.742V97.746C49.5639 100.148 47.7381 101.945 44.9368 101.945C43.5553 101.945 42.4592 101.498 41.7052 100.787C41.164 100.277 40.7646 99.5988 40.5689 98.7733H42.4541C42.5812 99.1278 42.7746 99.4534 43.0386 99.7293C43.5351 100.248 44.2135 100.519 44.955 100.519C45.7181 100.519 46.4214 100.234 46.9312 99.6991C47.4378 99.1671 47.6941 98.4504 47.6941 97.6824C47.6941 96.9017 47.4233 96.1783 46.8578 95.6566C46.3017 95.1436 45.5626 94.9189 44.7911 94.9189H43.6727L45.6815 91.6215L46.6077 90.1012H44.8275H40.8196V88.7016H48.6847ZM54.2266 64.993L54.2254 64.9938C53.1876 65.622 51.8443 64.8788 51.8371 63.6381V50.1781C51.8371 48.9581 53.1794 48.2006 54.2254 48.8338L54.2266 48.8346L65.3898 55.5702C66.4025 56.1813 66.4025 57.6463 65.3898 58.2574L54.2266 64.993ZM55.0362 97.4369C55.0362 98.3009 55.344 99.0873 55.9203 99.6592C56.4953 100.23 57.2781 100.528 58.1213 100.528C58.9737 100.528 59.7586 100.227 60.3325 99.6525C60.9063 99.0778 61.2065 98.2918 61.2065 97.4369C61.2065 96.5712 60.9059 95.7788 60.3312 95.1997C59.7565 94.6207 58.971 94.319 58.1213 94.319C57.2717 94.319 56.4878 94.6259 55.9149 95.2031C55.3419 95.7804 55.0362 96.5712 55.0362 97.4369ZM66.3692 95.1735C66.3692 92.9571 66.961 91.2477 67.9092 90.1113C68.8416 88.9938 70.185 88.3471 71.8977 88.3471C73.6105 88.3471 74.9539 88.9938 75.8863 90.1113C76.8344 91.2477 77.4263 92.9571 77.4263 95.1735C77.4263 97.3841 76.8327 99.094 75.8829 100.232C74.9485 101.352 73.6045 102 71.8977 102C70.197 102 68.8524 101.351 67.9159 100.229C66.9643 99.0887 66.3692 97.3783 66.3692 95.1735ZM68.4575 95.1735C68.4575 96.6245 68.6817 97.8931 69.2181 98.8343C69.7897 99.8373 70.7133 100.446 71.8977 100.446C73.0794 100.446 74.0034 99.8423 74.5763 98.8417C75.1137 97.9033 75.338 96.6385 75.338 95.1917C75.338 93.7372 75.1081 92.4659 74.5707 91.5222C74.0009 90.5217 73.0808 89.9012 71.8977 89.9012C70.7165 89.9012 69.794 90.511 69.2221 91.5118C68.6844 92.4526 68.4575 93.7209 68.4575 95.1735Z" fill="black" stroke="black" stroke-width="2"/>
</svg>
