<svg width="727" height="163" viewBox="0 0 727 163" fill="none" xmlns="http://www.w3.org/2000/svg">
<path d="M647.992 1C604.979 1 570 35.8172 570 78.6116C570 105.031 583.165 129.17 605.321 143.584V137.244C586.411 123.638 575.26 102.087 575.26 78.6116C575.26 38.6822 607.898 6.22521 647.992 6.22521C688.085 6.22521 720.723 38.6822 720.723 78.6116C720.723 102.386 708.864 124.651 689.413 138.104C690.017 139.705 690.517 141.473 690.866 143.415C712.638 129.119 726 104.724 726 78.612L647.992 1ZM647.992 1C691.005 1 725.983 35.817 726 78.6116L647.992 1ZM645.311 143.49L644.232 145.29L646.309 144.995C646.855 144.917 647.41 144.872 647.975 144.872C650.494 144.872 652.566 145.705 654.005 147.079C655.441 148.45 656.31 150.418 656.326 152.814C656.325 155.542 655.319 157.796 653.624 159.373C651.921 160.956 649.458 161.917 646.453 161.917C643.428 161.917 640.951 160.958 639.241 159.381C637.537 157.809 636.529 155.563 636.529 152.845C636.529 150.287 637.281 147.701 639.515 143.969L639.516 143.967L644.261 135.998H649.833C649.444 136.643 649.053 137.288 648.663 137.933C647.545 139.781 646.424 141.634 645.311 143.49ZM625.23 144.472L624.498 145.64L625.835 145.974C629.316 146.844 631.516 149.602 631.501 153.374V153.377C631.501 158.293 627.712 161.9 622.163 161.9C619.439 161.9 617.21 161.018 615.65 159.551C614.305 158.287 613.408 156.543 613.138 154.427H618.229C618.405 155.199 618.756 155.889 619.282 156.436C620.023 157.209 621.044 157.624 622.196 157.624C623.385 157.624 624.452 157.185 625.22 156.382C625.984 155.582 626.392 154.483 626.392 153.261C626.392 152.026 625.966 150.936 625.123 150.161C624.291 149.395 623.154 149.031 621.895 149.031H618.496V148.798L622.815 141.729L623.745 140.208H621.962H613.762V135.982H630.557L625.23 144.472ZM639.664 94.1029L639.663 94.1037C637.187 95.5977 634.017 93.818 634.003 90.9115C634.003 90.9109 634.003 90.9104 634.003 90.9099L634.003 66.2588C634.003 63.381 637.179 61.5873 639.663 63.0862L639.664 63.0869L660.173 75.4231C662.572 76.8657 662.572 80.3242 660.173 81.7668L639.664 94.1029ZM641.555 152.811C641.555 154.194 642.046 155.415 642.933 156.292C643.818 157.167 645.036 157.64 646.386 157.64C647.752 157.64 648.973 157.163 649.854 156.283C650.737 155.402 651.217 154.181 651.217 152.811C651.217 151.419 650.734 150.186 649.85 149.299C648.967 148.411 647.745 147.932 646.386 147.932C645.03 147.932 643.81 148.418 642.927 149.305C642.044 150.192 641.555 151.423 641.555 152.811ZM660.702 148.666C660.702 144.467 661.827 141.131 663.724 138.863C665.606 136.615 668.316 135.332 671.696 135.332C675.075 135.332 677.785 136.615 679.667 138.863C681.565 141.131 682.69 144.467 682.69 148.666C682.69 152.856 681.561 156.192 679.661 158.462C677.776 160.714 675.066 162 671.696 162C668.336 162 665.625 160.711 663.737 158.456C661.834 156.183 660.702 152.847 660.702 148.666ZM666.213 148.666C666.213 151.259 666.618 153.416 667.501 154.96C668.419 156.566 669.854 157.491 671.696 157.491C673.535 157.491 674.97 156.573 675.89 154.972C676.774 153.434 677.179 151.284 677.179 148.699C677.179 146.103 676.764 143.94 675.878 142.389C674.96 140.782 673.529 139.842 671.696 139.842C669.861 139.842 668.427 140.767 667.508 142.371C666.623 143.915 666.213 146.072 666.213 148.666Z" fill="black" stroke="black" stroke-width="2"/>
<path d="M21.36 112.28C23.0133 112.28 24.6933 112.067 26.4 111.64C28.1333 111.213 29.6933 110.627 31.08 109.88L28 100.04C26.8533 100.893 25.6267 101.32 24.32 101.32C21.92 101.32 20.72 99.7467 20.72 96.6V79.36H29.72V70.04H20.72V54.68H8.44V70.04H2.96V79.36H8.44V97.48C8.44 102.147 9.57333 105.787 11.84 108.4C14.1333 110.987 17.3067 112.28 21.36 112.28ZM62.0931 112.28C66.6265 112.28 70.7065 111.36 74.3331 109.52C77.9598 107.653 80.8265 105.093 82.9331 101.84C85.0665 98.56 86.1331 94.7867 86.1331 90.52C86.1331 86.2533 85.0665 82.4933 82.9331 79.24C80.8265 75.96 77.9598 73.4 74.3331 71.56C70.7065 69.6933 66.6265 68.76 62.0931 68.76C57.5865 68.76 53.5065 69.6933 49.8531 71.56C46.2265 73.4 43.3465 75.96 41.2131 79.24C39.1065 82.4933 38.0531 86.2533 38.0531 90.52C38.0531 94.7867 39.1065 98.56 41.2131 101.84C43.3465 105.093 46.2265 107.653 49.8531 109.52C53.5065 111.36 57.5865 112.28 62.0931 112.28ZM62.0931 101.8C60.0131 101.8 58.1198 101.32 56.4131 100.36C54.7331 99.4 53.3998 98.08 52.4131 96.4C51.4265 94.6933 50.9331 92.7333 50.9331 90.52C50.9331 88.3067 51.4265 86.36 52.4131 84.68C53.3998 82.9733 54.7331 81.64 56.4131 80.68C58.1198 79.72 60.0131 79.24 62.0931 79.24C64.1998 79.24 66.0931 79.72 67.7731 80.68C69.4798 81.64 70.8265 82.9733 71.8131 84.68C72.8265 86.36 73.3331 88.3067 73.3331 90.52C73.3331 92.7333 72.8265 94.6933 71.8131 96.4C70.8265 98.08 69.4798 99.4 67.7731 100.36C66.0931 101.32 64.1998 101.8 62.0931 101.8ZM117.086 112.28C124.579 112.28 129.966 110.813 133.246 107.88C136.552 104.92 138.206 100.067 138.206 93.32V70.04H125.926V90.44C125.926 94.76 125.259 97.8133 123.926 99.6C122.619 101.387 120.339 102.28 117.086 102.28C113.859 102.28 111.579 101.387 110.246 99.6C108.912 97.8133 108.246 94.76 108.246 90.44V70.04H95.9656V93.32C95.9656 100.067 97.619 104.92 100.926 107.88C104.232 110.813 109.619 112.28 117.086 112.28ZM151.693 111H163.973V88.12C163.973 86.6 164.413 85.1867 165.293 83.88C166.2 82.5467 167.36 81.4667 168.773 80.64C170.213 79.8133 171.733 79.4 173.333 79.4C175.653 79.4 177.84 80.0667 179.893 81.4L185.013 71.04C183.946 70.3733 182.64 69.8267 181.093 69.4C179.573 68.9733 178.093 68.76 176.653 68.76C174.12 68.76 171.746 69.3867 169.533 70.64C167.346 71.8667 165.493 73.6267 163.973 75.92V70.04H151.693V111ZM226.703 111H234.903L256.463 70.04H241.983L230.823 94.76L219.663 70.04H205.183L226.703 111ZM269.298 61.52C271.298 61.52 273.004 60.8 274.418 59.36C275.831 57.92 276.538 56.2 276.538 54.2C276.538 52.2 275.831 50.4933 274.418 49.08C273.004 47.6667 271.298 46.96 269.298 46.96C267.271 46.96 265.538 47.6667 264.098 49.08C262.684 50.4933 261.978 52.2 261.978 54.2C261.978 56.2267 262.684 57.96 264.098 59.4C265.538 60.8133 267.271 61.52 269.298 61.52ZM263.138 111H275.418V70.04H263.138V111ZM289.896 111H302.176V88.12C302.176 86.6 302.616 85.1867 303.496 83.88C304.403 82.5467 305.563 81.4667 306.976 80.64C308.416 79.8133 309.936 79.4 311.536 79.4C313.856 79.4 316.043 80.0667 318.096 81.4L323.216 71.04C322.15 70.3733 320.843 69.8267 319.296 69.4C317.776 68.9733 316.296 68.76 314.856 68.76C312.323 68.76 309.95 69.3867 307.736 70.64C305.55 71.8667 303.696 73.6267 302.176 75.92V70.04H289.896V111ZM344.173 112.28C345.826 112.28 347.506 112.067 349.213 111.64C350.946 111.213 352.506 110.627 353.893 109.88L350.813 100.04C349.666 100.893 348.439 101.32 347.133 101.32C344.733 101.32 343.533 99.7467 343.533 96.6V79.36H352.533V70.04H343.533V54.68H331.253V70.04H325.773V79.36H331.253V97.48C331.253 102.147 332.386 105.787 334.653 108.4C336.946 110.987 340.119 112.28 344.173 112.28ZM384.586 112.28C392.079 112.28 397.466 110.813 400.746 107.88C404.052 104.92 405.706 100.067 405.706 93.32V70.04H393.426V90.44C393.426 94.76 392.759 97.8133 391.426 99.6C390.119 101.387 387.839 102.28 384.586 102.28C381.359 102.28 379.079 101.387 377.746 99.6C376.412 97.8133 375.746 94.76 375.746 90.44V70.04H363.466V93.32C363.466 100.067 365.119 104.92 368.426 107.88C371.732 110.813 377.119 112.28 384.586 112.28ZM436.273 112.28C439.073 112.28 441.686 111.707 444.113 110.56C446.566 109.387 448.726 107.733 450.593 105.6V111H462.873V70.04H450.593V75.04C448.966 73.0667 446.9 71.5333 444.393 70.44C441.886 69.32 439.18 68.76 436.273 68.76C432.326 68.76 428.82 69.72 425.753 71.64C422.713 73.5333 420.326 76.12 418.593 79.4C416.86 82.6533 415.993 86.3333 415.993 90.44C415.993 94.6533 416.9 98.4133 418.713 101.72C420.526 105 422.953 107.587 425.993 109.48C429.06 111.347 432.486 112.28 436.273 112.28ZM439.913 101.84C436.74 101.84 434.113 100.773 432.033 98.64C429.953 96.5067 428.913 93.8 428.913 90.52C428.913 87.24 429.953 84.5333 432.033 82.4C434.14 80.2667 436.766 79.2 439.913 79.2C443.086 79.2 445.7 80.2667 447.753 82.4C449.833 84.5067 450.873 87.2133 450.873 90.52C450.873 93.8267 449.846 96.5467 447.793 98.68C445.74 100.787 443.113 101.84 439.913 101.84ZM477.318 111H489.598V42.2H477.318V111Z" fill="black"/>
</svg>
