<svg id="Layer_1" enable-background="new 0 0 512 512" height="512" viewBox="0 0 512 512" width="512" xmlns="http://www.w3.org/2000/svg"><g><g><path clip-rule="evenodd" d="m136 15h240c16.5 0 30 13.5 30 30v422c0 16.5-13.5 30-30 30h-240c-16.5 0-30-13.5-30-30v-422c0-16.5 13.5-30 30-30z" fill="#fff4f4" fill-rule="evenodd"/></g><path clip-rule="evenodd" d="m376 15h-120v482h120c16.5 0 30-13.5 30-30v-422c0-16.5-13.5-30-30-30z" fill="#f6efea" fill-rule="evenodd"/><path d="m345.863 132.999h-1.328c-19.299 0-34.999 15.701-34.999 35v16.657c0 21.49-17.187 39.03-38.536 39.626v-76.283c0-8.284-6.715-15-15-15-8.284 0-15 6.716-15 15v76.283c-21.349-.597-38.535-18.136-38.535-39.626v-16.657c0-19.299-15.701-35-34.999-35h-1.33c-8.284 0-15 6.716-15 15s6.716 15 15 15h1.33c2.71 0 4.999 2.29 4.999 5v16.657c0 38.032 30.644 69.023 68.535 69.626v49.937c0 8.284 6.716 15 15 15 8.285 0 15-6.716 15-15v-49.937c37.891-.602 68.536-31.594 68.536-69.626v-16.657c0-2.71 2.289-5 4.999-5h1.328c8.284 0 15-6.716 15-15s-6.716-15-15-15z" fill="#ff405c"/><g><path d="m345.997 379h-179.997c-8.284 0-15-6.716-15-15s6.716-15 15-15h179.997c8.284 0 15 6.716 15 15s-6.716 15-15 15z" fill="#7dd5f4"/></g><g><path d="m255.999 439h-89.999c-8.284 0-15-6.716-15-15s6.716-15 15-15h89.998c8.285 0 15 6.716 15 15s-6.715 15-14.999 15z" fill="#7dd5f4"/></g><g><path d="m376 0h-240c-24.813 0-45 20.187-45 45v422c0 24.813 20.187 45 45 45h240c24.813 0 45-20.187 45-45v-422c0-24.813-20.187-45-45-45zm15 467c0 8.271-6.729 15-15 15h-240c-8.271 0-15-6.729-15-15v-422c0-8.271 6.729-15 15-15h40.487l2.816 5.255c7.968 14.868 22.795 23.745 39.664 23.745h74.077c16.873 0 31.702-8.88 39.668-23.753l2.81-5.247h40.478c8.271 0 15 6.729 15 15z" fill="#007a9f"/></g><path d="m376 0h-120v59h37.044c16.873 0 31.702-8.88 39.668-23.753l2.81-5.247h40.478c8.271 0 15 6.729 15 15v422c0 8.271-6.729 15-15 15h-120v30h120c24.813 0 45-20.187 45-45v-422c0-24.813-20.187-45-45-45z" fill="#00607f"/><path d="m345.863 132.999h-1.328c-19.299 0-34.999 15.701-34.999 35v16.657c0 21.49-17.187 39.03-38.536 39.626v-76.283c0-8.284-6.715-15-15-15v186.22c8.285 0 15-6.716 15-15v-49.937c37.891-.602 68.536-31.594 68.536-69.626v-16.657c0-2.71 2.289-5 4.999-5h1.328c8.284 0 15-6.716 15-15s-6.716-15-15-15z" fill="#c1126b"/><g fill="#4793ff"><path d="m345.997 349h-89.997v30h89.997c8.284 0 15-6.716 15-15s-6.716-15-15-15z"/><path d="m256 409v30c8.284-.001 14.998-6.716 14.998-15s-6.714-14.999-14.998-15z"/></g></g></svg>