<svg xmlns="http://www.w3.org/2000/svg" width="211.453" height="122.297" viewBox="0 0 211.453 122.297"><defs><style>.a{fill:#d5b68f;}.b{fill:#827566;}</style></defs><g transform="translate(-120.236 -209.121)"><path class="a" d="M120.236,331.25l7.643-19.881H131.6l7.616,19.881h-4.872l-1.54-4.453h-6.188l-1.511,4.453Zm9.491-15.008-2.38,7.391h4.677Z"/><path class="a" d="M145.519,331.25V311.369h4.592V331.25Z"/><path class="a" d="M158.4,331.25V311.369h4.592v15.848h9.631v4.033Z"/><path class="a" d="M179.37,331.25V311.369h4.592v15.848h9.632v4.033Z"/><path class="a" d="M214.314,327.217v4.033H200.342V311.369h13.72V315.4h-9.128v3.864h7.84v3.724h-7.84v4.227Z"/><path class="a" d="M221.063,321.17a10.623,10.623,0,0,1,.63-3.57,9.881,9.881,0,0,1,1.834-3.178,9.428,9.428,0,0,1,2.954-2.283,8.739,8.739,0,0,1,3.989-.881,8.157,8.157,0,0,1,4.536,1.217,7.484,7.484,0,0,1,2.773,3.123l-1.176.672a6.223,6.223,0,0,0-1.219-1.737,6.5,6.5,0,0,0-1.54-1.133,6.729,6.729,0,0,0-1.722-.63,8.211,8.211,0,0,0-1.763-.2,7.076,7.076,0,0,0-3.361.77,7.9,7.9,0,0,0-2.463,2,8.733,8.733,0,0,0-1.527,2.785,9.811,9.811,0,0,0-.517,3.123,9.238,9.238,0,0,0,.616,3.359,9.351,9.351,0,0,0,1.679,2.815,8.126,8.126,0,0,0,2.52,1.945,6.912,6.912,0,0,0,3.137.729,7.861,7.861,0,0,0,1.834-.225,7.393,7.393,0,0,0,1.819-.7,7.251,7.251,0,0,0,1.639-1.219,6.469,6.469,0,0,0,1.259-1.75l1.205.588a6.74,6.74,0,0,1-1.359,1.988,8.3,8.3,0,0,1-1.918,1.457,9.2,9.2,0,0,1-2.254.881,9.676,9.676,0,0,1-2.338.3,7.864,7.864,0,0,1-3.738-.9,9.909,9.909,0,0,1-2.926-2.337,10.841,10.841,0,0,1-1.918-3.276A10.574,10.574,0,0,1,221.063,321.17Z"/><path class="a" d="M246.289,331.25V311.369h1.428v18.592h11.872v1.289Z"/><path class="a" d="M267.317,331.25V311.4h1.427V331.25Z"/><path class="a" d="M279.916,314.057V331.25h-1.427V311.369h1.091l13.945,17.5V311.4h1.427V331.25h-1.315Z"/><path class="a" d="M304.7,331.25V311.4h1.427V331.25Z"/><path class="a" d="M314.553,321.17a10.623,10.623,0,0,1,.63-3.57,9.88,9.88,0,0,1,1.834-3.178,9.439,9.439,0,0,1,2.954-2.283,8.739,8.739,0,0,1,3.989-.881,8.157,8.157,0,0,1,4.536,1.217,7.484,7.484,0,0,1,2.773,3.123l-1.176.672a6.222,6.222,0,0,0-1.219-1.737,6.5,6.5,0,0,0-1.54-1.133,6.723,6.723,0,0,0-1.721-.63,8.227,8.227,0,0,0-1.764-.2,7.069,7.069,0,0,0-3.36.77,7.909,7.909,0,0,0-2.464,2,8.733,8.733,0,0,0-1.527,2.785,9.839,9.839,0,0,0-.517,3.123,9.238,9.238,0,0,0,.616,3.359,9.333,9.333,0,0,0,1.68,2.815,8.133,8.133,0,0,0,2.519,1.945,6.912,6.912,0,0,0,3.137.729,7.854,7.854,0,0,0,1.834-.225,7.393,7.393,0,0,0,1.819-.7,7.251,7.251,0,0,0,1.639-1.219,6.493,6.493,0,0,0,1.26-1.75l1.2.588a6.74,6.74,0,0,1-1.359,1.988,8.3,8.3,0,0,1-1.918,1.457,9.192,9.192,0,0,1-2.253.881,9.682,9.682,0,0,1-2.338.3,7.865,7.865,0,0,1-3.739-.9,9.892,9.892,0,0,1-2.925-2.337,10.82,10.82,0,0,1-1.918-3.276A10.575,10.575,0,0,1,314.553,321.17Z"/><path class="b" d="M200.066,209.121v70.462h5.728V247.548h17.293V241.82H205.794V214.848h40.315V241.82H228.815v5.728h17.294v32.035h5.728V209.121Z"/></g></svg>